<?xml version="1.0" encoding="UTF-8"?>
<svg id="Layer_2" data-name="Layer 2" xmlns="http://www.w3.org/2000/svg" viewBox="0 0 210.4 46.67">
  <defs>
    <style>
      .cls-1 {
        fill: #435145;
      }
    </style>
  </defs>
  <g id="Layer_1-2" data-name="Layer 1">
    <g>
      <path class="cls-1" d="M21.18,36.03c-1.72.68-3.47.57-5.24.19l-.24-16.82c-.03-1.98-1.47-3.83-2.79-4.37-1.82-.75-3.82-.34-5.31,1.03-1.41,1.29-2.15,3.3-2.17,5.3l-.18,14.85c-1.78.41-3.37.46-5.2-.21l-.06-24.79c1.45-.75,3.21-.84,4.61-.17l.57,2.43c2.08-2.22,4.57-3.4,7.42-3.42s5.32,1.11,7.28,4.23c1.99-2.94,4.86-4.31,8.4-4.24,4.99.09,8.56,3.66,8.57,8.71l.04,17.26c-1.56.69-3.21.61-5.1.21l-.32-16.69c-.06-2.93-2.33-5-4.85-4.94s-5.07,1.95-5.12,4.87l-.31,16.57Z"/>
      <path class="cls-1" d="M133.98,34.82c-2.42-2.01-2.66-5.31-1.93-7.98.62-2.28,2.99-3.98,5.81-4.61l9.29-2.06c1.34-.3,1.14-2.55.52-3.55s-1.6-1.83-3.32-2.11c-3.16-.51-6.3.52-7,3.94-1.64.4-3.18.36-4.81.12-.05-3.37,1.95-6.04,5.02-7.35,3.28-1.4,7.13-1.34,10.51-.24s5.21,3.82,5.3,7.24l.33,12.99c.7.54,2.12.96,2.29,1.59.25.9.2,1.96.14,3.32-2.76,1.16-5.88.49-7.8-2.62-3.9,3.92-10.04,4.9-14.35,1.31ZM141.03,32.78c2.42.01,4.75-.9,5.87-2.56,1.19-1.77,1.63-3.84,1.36-6.29l-8.2,1.79c-2.05.45-3.17,2.1-2.94,3.94s1.78,3.1,3.9,3.12Z"/>
      <path class="cls-1" d="M210.4,11.01l-11.31,30.36c-1.64,4.4-6.11,6.08-10.69,4.97-.82-.62-.95-3.56,0-4.15,1.42-.28,3.84.17,4.79-.82.87-.9,2.72-3.07,2.07-4.76l-9.79-25.49c1.6-.78,3.51-.55,5.58-.22l7.11,18.74,6.83-18.83c1.82-.17,3.14-.41,5.42.19Z"/>
      <path class="cls-1" d="M64.21,11.02l.1,25c-1.6.72-3.19.6-4.75.21l-.87-2.41c-1.98,2.2-4.62,3.1-7.75,3.07-4.71-.03-8.73-3.22-8.79-8.08l-.2-17.7c1.85-.67,3.52-.64,5.37.02l.23,16.2c.03,2.01,1.24,3.76,2.63,4.55,1.71.97,3.86.93,5.71-.24,2.13-1.35,3.1-3.71,3.14-6.3l.23-13.94c.7-1.11,3.44-1,4.95-.39Z"/>
      <path class="cls-1" d="M86.59,35.38c-3.64,2.14-8.01,1.97-11.84.83s-6.33-4.21-6.47-7.92l5.35-.07c.77,3.87,4.19,5.28,7.96,4.45,1.7-.37,3.12-1.48,3.28-3.07.5-5.04-8.94-2.76-14.02-7.42-1.84-1.69-2.04-4.29-1.29-6.53,1.73-5.16,8.44-6.62,14.19-5.03,3.37.94,5.53,3.74,5.78,7.34-1.68.39-3.24.33-4.99-.09-.8-3.43-3.93-4.2-7.09-3.52-1.6.34-2.83,1.21-3.01,2.78-.15,1.35.95,2.61,2.56,3.02l7.88,2.01c3.02.77,5.03,3.04,5.37,5.69.36,2.88-.72,5.81-3.65,7.53Z"/>
      <path class="cls-1" d="M110.89,28.42c1.34,3.13,4.15,4.39,6.86,4.09,2.85-.32,5.05-2.21,5.74-5.33,1.86-.37,3.75-.44,5.56.15-.9,6.29-6.18,9.64-11.98,9.7-8.03.07-13.02-5.85-12.89-13.64s5.33-13.9,13.56-13.37c5.47.36,10.23,3.48,10.96,9.6-1.8.26-3.45.32-5.27,0-.78-3.17-3.34-4.92-6.11-5.05-3.21-.16-5.93,1.69-6.9,5.03-.8,2.77-.76,5.94.47,8.84Z"/>
      <path class="cls-1" d="M182.46,36.61c-3.47.06-5.93-1.75-5.95-5.33l-.19-24.96-4.99-.49c-.63-1.07-.6-3.79.55-4.13,3.16-.93,6.37-.51,9.63-.08l.1,27.74c.01,3.99,4.87.95,4.2,5.65-.25,1.73-1.64,1.57-3.35,1.6Z"/>
      <rect class="cls-1" x="94.48" y="10.71" width="5.52" height="25.78" transform="translate(-.03 .13)"/>
      <path class="cls-1" d="M163.42,22.75l-.63-16.4-4.32-.61c-.94-.13-.97-3.22-.22-3.97,3-.97,6.5-.72,9.9-.06l-.07,20.87c0,1.23-4.59,1.62-4.65.18Z"/>
      <path class="cls-1" d="M172.96,36.15c-4.86.75-9.67.48-14.44.18-1.19-.08-1.14-4.2.45-4.28,6.62-.32,1.9-6.54,6.41-6.81,2.18-.13,3.32.87,3.01,3.47-.12,1.02.45,2.25,1.11,2.6.76.4,1.8.69,3.05.68,1.55-.02,1.78,3.95.41,4.16Z"/>
      <circle class="cls-1" cx="97.18" cy="3.58" r="3.58"/>
    </g>
  </g>
</svg>