<svg xmlns="http://www.w3.org/2000/svg" viewBox="0 0 58.17 67.23">
  <defs>
    <style>
      .cls-1{fill:#a47fb9}.cls-2{fill:#3d4d3f}.cls-3{fill:#f4816b}
    </style>
  </defs>
  <g>
    <path class="cls-2" d="M47.66 20.05l10.25.07c-1.2 8.31-8.55 14.69-17.19 14.66l-24.63-.1c-8.25-.03-14.72-6.71-15.94-14.57l11.89-.04c2.7 0 4.83-1.5 5.73-3.96l2.14-5.85c.25-.67.71-.96 1.23-.98.67-.02 1.09.38 1.36 1.28l4.49 14.75c.63 2.06 2.29 3.35 4.18 3.59 2.05.26 3.96-1.2 4.69-3.42l2.95-9c.27-.84.94-1.37 1.57-1.43 1.98-.17 2.57 4.97 7.27 5z"/>
    <path class="cls-2" d="M32.86 24.2c-.27.8-.86 1.41-1.22 1.51-3.36.86-3.75-20.07-10.51-19.77-5.02.22-4.36 6.49-7.53 10.76L.01 16.83C.47 7.78 7.68.18 16.97.13L39.38 0c10.01-.06 18.31 6.94 18.67 16.83l-10.58-.06c-2.33-.01-2.94-5.16-7.1-5.18-2.02 0-3.71 1.29-4.43 3.41l-3.09 9.19z"/>
    <path class="cls-1" d="M52.27 42.73c-.44 2.38 1.54 2.84 2.8 4.78l-20.38.16c-2.29.02-3.71-2.42-3.66-4.17.07-2.34 1.8-4.18 4.37-4.18l19.57.06-2.7 3.33zM53.74 57.3l-19.18-.3c1.43-1.46 2.36-2.41 2.42-3.62.07-1.47-.78-2.39-2.07-4.15l19.16-.18c2.41-.02 3.9 1.89 4.08 3.72.23 2.43-1.36 4.57-4.4 4.52zM54.81 66.85l-19.41.19c-2.11.02-3.66-1.55-4.01-3.08-.4-1.74.42-4.81 2.71-4.82l20.78-.06c-1.49 1.59-2.69 2.43-2.72 3.66-.04 1.63.93 2.16 2.65 4.11z"/>
    <path class="cls-3" d="M28.22 53.17c0 7.76-6.29 14.06-14.06 14.06S.11 60.94.11 53.17s6.29-14.06 14.06-14.06 14.06 6.29 14.06 14.06zm-7.11-.16l-10.52-6.27.06 12.62c3.9-1.98 7.16-3.48 10.46-6.35z"/>
  </g>
</svg>
