<svg xmlns="http://www.w3.org/2000/svg" viewBox="0 0 58 58" fill="none">
  <rect width="58" height="58" rx="12" fill="#2D4535"/>
  <g transform="translate(4,4) scale(0.86)">
    <path d="M47.66 20h5c-1.2 8-8.5 14-17 14H11c-8 0-14-6.5-15-14h12c2.5 0 4.5-1.5 5.5-4l2-6c.5-1 1.5-1 2 0l4.5 14.5c.5 2 2 3.5 4 3.5 2 0 4-1 4.5-3l3-9c.5-1 1.5-1.5 2-1.5 2 0 2.5 5 7 5Z" fill="#fff"/>
    <path d="M33 24c-.5 1-1 1.5-1.5 1.5-3.5 1-3.5-20-10.5-19.5-5 .2-4 6.5-7.5 10.5H0C.5 7.5 7.5 0 17 0h22.5c10 0 18 7 18.5 17h-10.5c-2.5 0-3-5-7-5-2 0-3.5 1.5-4.5 3.5l-3 8.5Z" fill="#fff" opacity=".7"/>
    <circle cx="16" cy="42" r="13" fill="#FF7F6E"/>
    <path d="m10.5 42 5-3v6l-5-3Z" fill="#fff"/>
  </g>
</svg>
